<?xml version="1.0" encoding="utf-8"?>
<!-- Generated by Mocodo 4.3.2 -->
<svg width="990" height="381" viewBox="0 0 990 381" xmlns="http://www.w3.org/2000/svg">
<rect x="0" y="0" width="990" height="381" fill="#2E2B22" stroke="none" stroke-width="0"/>

<!-- Entity ASSISTANCE -->
<g>
	<g>
		<rect x="41" y="34" width="76" height="25" fill="#5F3C14" stroke="none" stroke-width="0" opacity="1"/>
		<rect x="41" y="59" width="76" height="43" fill="#7C5020" stroke="none" stroke-width="0" opacity="1"/>
		<rect x="41" y="34" width="76" height="68" fill="none" stroke="#E5A04B" stroke-width="2" opacity="1"/>
		<line x1="41" y1="59" x2="117" y2="59" stroke="#E5A04B" stroke-width="1"/>
	</g>
	<text x="48" y="51.75" fill="#E3D5B3" font-family="Verdana" font-size="12">assistance</text>
	<text x="46" y="76.8" fill="#E3D5B3" font-family="Verdana" font-size="12">date</text>
	<line x1="46" y1="79" x2="74" y2="79" stroke="#E3D5B3" stroke-width="1"/>
	<text x="46" y="93.8" fill="#E3D5B3" font-family="Verdana" font-size="12">#personne</text>
	<line x1="46" y1="96" x2="112" y2="96" stroke="#E3D5B3" stroke-width="1"/>
</g>

<!-- Entity AMANTS -->
<g>
	<g>
		<rect x="181" y="34" width="88" height="25" fill="#5F3C14" stroke="none" stroke-width="0" opacity="1"/>
		<rect x="181" y="59" width="88" height="43" fill="#7C5020" stroke="none" stroke-width="0" opacity="1"/>
		<rect x="181" y="34" width="88" height="68" fill="none" stroke="#E5A04B" stroke-width="2" opacity="1"/>
		<line x1="181" y1="59" x2="269" y2="59" stroke="#E5A04B" stroke-width="1"/>
	</g>
	<text x="202" y="51.75" fill="#E3D5B3" font-family="Verdana" font-size="12">amants</text>
	<text x="186" y="76.8" fill="#E3D5B3" font-family="Verdana" font-size="12">#personne 1</text>
	<line x1="186" y1="79" x2="264" y2="79" stroke="#E3D5B3" stroke-width="1"/>
	<text x="186" y="93.8" fill="#E3D5B3" font-family="Verdana" font-size="12">#personne 2</text>
	<line x1="186" y1="96" x2="264" y2="96" stroke="#E3D5B3" stroke-width="1"/>
</g>

<!-- Entity EMPRUNT -->
<g>
	<g>
		<rect x="483" y="9" width="98" height="25" fill="#5F3C14" stroke="none" stroke-width="0" opacity="1"/>
		<rect x="483" y="34" width="98" height="93" fill="#7C5020" stroke="none" stroke-width="0" opacity="1"/>
		<rect x="483" y="9" width="98" height="118" fill="none" stroke="#E5A04B" stroke-width="2" opacity="1"/>
		<line x1="483" y1="34" x2="581" y2="34" stroke="#E5A04B" stroke-width="1"/>
	</g>
	<text x="506" y="26.75" fill="#E3D5B3" font-family="Verdana" font-size="12">emprunt</text>
	<text x="488" y="51.8" fill="#E3D5B3" font-family="Verdana" font-size="12">emprunt</text>
	<line x1="488" y1="54" x2="540" y2="54" stroke="#E3D5B3" stroke-width="1"/>
	<text x="488" y="68.8" fill="#E3D5B3" font-family="Verdana" font-size="12">montant</text>
	<text x="488" y="85.8" fill="#E3D5B3" font-family="Verdana" font-size="12">date_emprunt</text>
	<text x="488" y="102.8" fill="#E3D5B3" font-family="Verdana" font-size="12">date_rendu</text>
	<text x="488" y="119.8" fill="#E3D5B3" font-family="Verdana" font-size="12">#personne</text>
</g>

<!-- Entity DIAGNOSTIC -->
<g>
	<g>
		<rect x="647" y="34" width="94" height="25" fill="#5F3C14" stroke="none" stroke-width="0" opacity="1"/>
		<rect x="647" y="59" width="94" height="43" fill="#7C5020" stroke="none" stroke-width="0" opacity="1"/>
		<rect x="647" y="34" width="94" height="68" fill="none" stroke="#E5A04B" stroke-width="2" opacity="1"/>
		<line x1="647" y1="59" x2="741" y2="59" stroke="#E5A04B" stroke-width="1"/>
	</g>
	<text x="663" y="51.75" fill="#E3D5B3" font-family="Verdana" font-size="12">diagnostic</text>
	<text x="652" y="76.8" fill="#E3D5B3" font-family="Verdana" font-size="12">#consultation</text>
	<line x1="652" y1="79" x2="736" y2="79" stroke="#E3D5B3" stroke-width="1"/>
	<text x="652" y="93.8" fill="#E3D5B3" font-family="Verdana" font-size="12">trouble</text>
	<line x1="652" y1="96" x2="696" y2="96" stroke="#E3D5B3" stroke-width="1"/>
</g>

<!-- Entity FRAGMENT -->
<g>
	<g>
		<rect x="813" y="34" width="66" height="25" fill="#5F3C14" stroke="none" stroke-width="0" opacity="1"/>
		<rect x="813" y="59" width="66" height="43" fill="#7C5020" stroke="none" stroke-width="0" opacity="1"/>
		<rect x="813" y="34" width="66" height="68" fill="none" stroke="#E5A04B" stroke-width="2" opacity="1"/>
		<line x1="813" y1="59" x2="879" y2="59" stroke="#E5A04B" stroke-width="1"/>
	</g>
	<text x="818" y="51.75" fill="#E3D5B3" font-family="Verdana" font-size="12">fragment</text>
	<text x="818" y="76.8" fill="#E3D5B3" font-family="Verdana" font-size="12">fragment</text>
	<line x1="818" y1="79" x2="874" y2="79" stroke="#E3D5B3" stroke-width="1"/>
	<text x="818" y="93.8" fill="#E3D5B3" font-family="Verdana" font-size="12">texte</text>
</g>

<!-- Entity RELATION -->
<g>
	<g>
		<rect x="181" y="161" width="88" height="25" fill="#5F3C14" stroke="none" stroke-width="0" opacity="1"/>
		<rect x="181" y="186" width="88" height="59" fill="#7C5020" stroke="none" stroke-width="0" opacity="1"/>
		<rect x="181" y="161" width="88" height="84" fill="none" stroke="#E5A04B" stroke-width="2" opacity="1"/>
		<line x1="181" y1="186" x2="269" y2="186" stroke="#E5A04B" stroke-width="1"/>
	</g>
	<text x="202" y="178.75" fill="#E3D5B3" font-family="Verdana" font-size="12">relation</text>
	<text x="186" y="203.8" fill="#E3D5B3" font-family="Verdana" font-size="12">#personne 1</text>
	<line x1="186" y1="206" x2="264" y2="206" stroke="#E3D5B3" stroke-width="1"/>
	<text x="186" y="220.8" fill="#E3D5B3" font-family="Verdana" font-size="12">#personne 2</text>
	<line x1="186" y1="223" x2="264" y2="223" stroke="#E3D5B3" stroke-width="1"/>
	<text x="186" y="237.8" fill="#E3D5B3" font-family="Verdana" font-size="12">nature</text>
</g>

<!-- Entity PERSONNE -->
<g>
	<g>
		<rect x="333" y="110" width="86" height="25" fill="#5F3C14" stroke="none" stroke-width="0" opacity="1"/>
		<rect x="333" y="135" width="86" height="161" fill="#7C5020" stroke="none" stroke-width="0" opacity="1"/>
		<rect x="333" y="110" width="86" height="186" fill="none" stroke="#E5A04B" stroke-width="2" opacity="1"/>
		<line x1="333" y1="135" x2="419" y2="135" stroke="#E5A04B" stroke-width="1"/>
	</g>
	<text x="348" y="127.75" fill="#E3D5B3" font-family="Verdana" font-size="12">personne</text>
	<text x="338" y="152.8" fill="#E3D5B3" font-family="Verdana" font-size="12">personne</text>
	<line x1="338" y1="155" x2="395" y2="155" stroke="#E3D5B3" stroke-width="1"/>
	<text x="338" y="169.8" fill="#E3D5B3" font-family="Verdana" font-size="12">sexe</text>
	<text x="338" y="186.8" fill="#E3D5B3" font-family="Verdana" font-size="12">âge</text>
	<text x="338" y="203.8" fill="#E3D5B3" font-family="Verdana" font-size="12">complément</text>
	<text x="338" y="220.8" fill="#E3D5B3" font-family="Verdana" font-size="12">numéro</text>
	<text x="338" y="237.8" fill="#E3D5B3" font-family="Verdana" font-size="12">voie</text>
	<text x="338" y="254.8" fill="#E3D5B3" font-family="Verdana" font-size="12">pratiquant</text>
	<text x="338" y="271.8" fill="#E3D5B3" font-family="Verdana" font-size="12">date décès</text>
	<text x="338" y="288.8" fill="#E3D5B3" font-family="Verdana" font-size="12">#id travail</text>
</g>

<!-- Entity CONSULTATION -->
<g>
	<g>
		<rect x="490" y="152" width="84" height="25" fill="#5F3C14" stroke="none" stroke-width="0" opacity="1"/>
		<rect x="490" y="177" width="84" height="77" fill="#7C5020" stroke="none" stroke-width="0" opacity="1"/>
		<rect x="490" y="152" width="84" height="102" fill="none" stroke="#E5A04B" stroke-width="2" opacity="1"/>
		<line x1="490" y1="177" x2="574" y2="177" stroke="#E5A04B" stroke-width="1"/>
	</g>
	<text x="495" y="169.75" fill="#E3D5B3" font-family="Verdana" font-size="12">consultation</text>
	<text x="495" y="194.8" fill="#E3D5B3" font-family="Verdana" font-size="12">consultation</text>
	<line x1="495" y1="197" x2="569" y2="197" stroke="#E3D5B3" stroke-width="1"/>
	<text x="495" y="211.8" fill="#E3D5B3" font-family="Verdana" font-size="12">date</text>
	<text x="495" y="228.8" fill="#E3D5B3" font-family="Verdana" font-size="12">#docteur</text>
	<text x="495" y="245.8" fill="#E3D5B3" font-family="Verdana" font-size="12">#patient</text>
</g>

<!-- Entity PRESCRIPTION -->
<g>
	<g>
		<rect x="647" y="161" width="94" height="25" fill="#5F3C14" stroke="none" stroke-width="0" opacity="1"/>
		<rect x="647" y="186" width="94" height="59" fill="#7C5020" stroke="none" stroke-width="0" opacity="1"/>
		<rect x="647" y="161" width="94" height="84" fill="none" stroke="#E5A04B" stroke-width="2" opacity="1"/>
		<line x1="647" y1="186" x2="741" y2="186" stroke="#E5A04B" stroke-width="1"/>
	</g>
	<text x="658" y="178.75" fill="#E3D5B3" font-family="Verdana" font-size="12">prescription</text>
	<text x="652" y="203.8" fill="#E3D5B3" font-family="Verdana" font-size="12">#consultation</text>
	<line x1="652" y1="206" x2="736" y2="206" stroke="#E3D5B3" stroke-width="1"/>
	<text x="652" y="220.8" fill="#E3D5B3" font-family="Verdana" font-size="12">#spécialité</text>
	<line x1="652" y1="223" x2="719" y2="223" stroke="#E3D5B3" stroke-width="1"/>
	<text x="652" y="237.8" fill="#E3D5B3" font-family="Verdana" font-size="12">durée</text>
</g>

<!-- Entity SPECIALITE -->
<g>
	<g>
		<rect x="812" y="169" width="68" height="25" fill="#5F3C14" stroke="none" stroke-width="0" opacity="1"/>
		<rect x="812" y="194" width="68" height="43" fill="#7C5020" stroke="none" stroke-width="0" opacity="1"/>
		<rect x="812" y="169" width="68" height="68" fill="none" stroke="#E5A04B" stroke-width="2" opacity="1"/>
		<line x1="812" y1="194" x2="880" y2="194" stroke="#E5A04B" stroke-width="1"/>
	</g>
	<text x="818" y="186.75" fill="#E3D5B3" font-family="Verdana" font-size="12">spécialité</text>
	<text x="817" y="211.8" fill="#E3D5B3" font-family="Verdana" font-size="12">spécialité</text>
	<line x1="817" y1="214" x2="874" y2="214" stroke="#E3D5B3" stroke-width="1"/>
	<text x="817" y="228.8" fill="#E3D5B3" font-family="Verdana" font-size="12">stock</text>
</g>

<!-- Entity SITE -->
<g>
	<g>
		<rect x="50" y="279" width="58" height="25" fill="#5F3C14" stroke="none" stroke-width="0" opacity="1"/>
		<rect x="50" y="304" width="58" height="59" fill="#7C5020" stroke="none" stroke-width="0" opacity="1"/>
		<rect x="50" y="279" width="58" height="84" fill="none" stroke="#E5A04B" stroke-width="2" opacity="1"/>
		<line x1="50" y1="304" x2="108" y2="304" stroke="#E5A04B" stroke-width="1"/>
	</g>
	<text x="68" y="296.75" fill="#E3D5B3" font-family="Verdana" font-size="12">site</text>
	<text x="55" y="321.8" fill="#E3D5B3" font-family="Verdana" font-size="12">site</text>
	<line x1="55" y1="324" x2="77" y2="324" stroke="#E3D5B3" stroke-width="1"/>
	<text x="55" y="338.8" fill="#E3D5B3" font-family="Verdana" font-size="12">numéro</text>
	<text x="55" y="355.8" fill="#E3D5B3" font-family="Verdana" font-size="12">voie</text>
</g>

<!-- Entity TRAVAIL -->
<g>
	<g>
		<rect x="185" y="279" width="80" height="25" fill="#5F3C14" stroke="none" stroke-width="0" opacity="1"/>
		<rect x="185" y="304" width="80" height="59" fill="#7C5020" stroke="none" stroke-width="0" opacity="1"/>
		<rect x="185" y="279" width="80" height="84" fill="none" stroke="#E5A04B" stroke-width="2" opacity="1"/>
		<line x1="185" y1="304" x2="265" y2="304" stroke="#E5A04B" stroke-width="1"/>
	</g>
	<text x="206" y="296.75" fill="#E3D5B3" font-family="Verdana" font-size="12">travail</text>
	<text x="190" y="321.8" fill="#E3D5B3" font-family="Verdana" font-size="12">id travail</text>
	<line x1="190" y1="324" x2="244" y2="324" stroke="#E3D5B3" stroke-width="1"/>
	<text x="190" y="338.8" fill="#E3D5B3" font-family="Verdana" font-size="12">nom travail</text>
	<text x="190" y="355.8" fill="#E3D5B3" font-family="Verdana" font-size="12">#site</text>
</g>

<!-- Entity LETTRE -->
<g>
	<g>
		<rect x="486" y="279" width="92" height="25" fill="#5F3C14" stroke="none" stroke-width="0" opacity="1"/>
		<rect x="486" y="304" width="92" height="59" fill="#7C5020" stroke="none" stroke-width="0" opacity="1"/>
		<rect x="486" y="279" width="92" height="84" fill="none" stroke="#E5A04B" stroke-width="2" opacity="1"/>
		<line x1="486" y1="304" x2="578" y2="304" stroke="#E5A04B" stroke-width="1"/>
	</g>
	<text x="516" y="296.75" fill="#E3D5B3" font-family="Verdana" font-size="12">lettre</text>
	<text x="491" y="321.8" fill="#E3D5B3" font-family="Verdana" font-size="12">lettre</text>
	<line x1="491" y1="324" x2="524" y2="324" stroke="#E3D5B3" stroke-width="1"/>
	<text x="491" y="338.8" fill="#E3D5B3" font-family="Verdana" font-size="12">date</text>
	<text x="491" y="355.8" fill="#E3D5B3" font-family="Verdana" font-size="12">#destinataire</text>
</g>

<!-- Entity HOSPITALISATION -->
<g>
	<g>
		<rect x="645" y="270" width="98" height="25" fill="#5F3C14" stroke="none" stroke-width="0" opacity="1"/>
		<rect x="645" y="295" width="98" height="77" fill="#7C5020" stroke="none" stroke-width="0" opacity="1"/>
		<rect x="645" y="270" width="98" height="102" fill="none" stroke="#E5A04B" stroke-width="2" opacity="1"/>
		<line x1="645" y1="295" x2="743" y2="295" stroke="#E5A04B" stroke-width="1"/>
	</g>
	<text x="650" y="287.75" fill="#E3D5B3" font-family="Verdana" font-size="12">hospitalisation</text>
	<text x="650" y="312.8" fill="#E3D5B3" font-family="Verdana" font-size="12">#consultation</text>
	<line x1="650" y1="315" x2="734" y2="315" stroke="#E3D5B3" stroke-width="1"/>
	<text x="650" y="329.8" fill="#E3D5B3" font-family="Verdana" font-size="12">entrée</text>
	<text x="650" y="346.8" fill="#E3D5B3" font-family="Verdana" font-size="12">sortie</text>
	<text x="650" y="363.8" fill="#E3D5B3" font-family="Verdana" font-size="12">lit</text>
</g>

<!-- Entity INDICATION -->
<g>
	<g>
		<rect x="807" y="287" width="78" height="25" fill="#5F3C14" stroke="none" stroke-width="0" opacity="1"/>
		<rect x="807" y="312" width="78" height="43" fill="#7C5020" stroke="none" stroke-width="0" opacity="1"/>
		<rect x="807" y="287" width="78" height="68" fill="none" stroke="#E5A04B" stroke-width="2" opacity="1"/>
		<line x1="807" y1="312" x2="885" y2="312" stroke="#E5A04B" stroke-width="1"/>
	</g>
	<text x="817" y="304.75" fill="#E3D5B3" font-family="Verdana" font-size="12">indication</text>
	<text x="812" y="329.8" fill="#E3D5B3" font-family="Verdana" font-size="12">#spécialité</text>
	<line x1="812" y1="332" x2="879" y2="332" stroke="#E3D5B3" stroke-width="1"/>
	<text x="812" y="346.8" fill="#E3D5B3" font-family="Verdana" font-size="12">trouble</text>
	<line x1="812" y1="349" x2="856" y2="349" stroke="#E3D5B3" stroke-width="1"/>
</g>

<!-- Link from &quot;personne&quot; (ASSISTANCE) to &quot;personne&quot; (PERSONNE) -->
<path d="M117 89.5 C225 119 189 148.5 333 148.5" fill="none" stroke="#C6A664" stroke-width="2"/>
<polygon points="333 148.5 321 154.5 325 148.5 321 142.5" fill="#C6A664" stroke-width="0"/>
<circle cx="117" cy="89.5" r="2" stroke="#C6A664" stroke-width="2" fill="#C6A664"/>

<!-- Link from &quot;personne&quot; (AMANTS) to &quot;personne&quot; (PERSONNE) -->
<path d="M269 72.5 C301 110.5 290.33 148.5 333 148.5" fill="none" stroke="#C6A664" stroke-width="2"/>
<polygon points="333 148.5 321 154.5 325 148.5 321 142.5" fill="#C6A664" stroke-width="0"/>
<circle cx="269" cy="72.5" r="2" stroke="#C6A664" stroke-width="2" fill="#C6A664"/>

<!-- Link from &quot;personne&quot; (AMANTS) to &quot;personne&quot; (PERSONNE) -->
<path d="M269 89.5 C301 119 290.33 148.5 333 148.5" fill="none" stroke="#C6A664" stroke-width="2"/>
<polygon points="333 148.5 321 154.5 325 148.5 321 142.5" fill="#C6A664" stroke-width="0"/>
<circle cx="269" cy="89.5" r="2" stroke="#C6A664" stroke-width="2" fill="#C6A664"/>

<!-- Link from &quot;personne&quot; (EMPRUNT) to &quot;personne&quot; (PERSONNE) -->
<path d="M483 115.5 C451 132 461.67 148.5 419 148.5" fill="none" stroke="#C6A664" stroke-width="2"/>
<polygon points="419 148.5 431 142.5 427 148.5 431 154.5" fill="#C6A664" stroke-width="0"/>
<circle cx="483" cy="115.5" r="2" stroke="#C6A664" stroke-width="2" fill="#C6A664"/>

<!-- Link from &quot;consultation&quot; (DIAGNOSTIC) to &quot;consultation&quot; (CONSULTATION) -->
<path d="M647 72.5 C610.5 131.5 622.67 190.5 574 190.5" fill="none" stroke="#C6A664" stroke-width="2"/>
<polygon points="574 190.5 586 184.5 582 190.5 586 196.5" fill="#C6A664" stroke-width="0"/>
<circle cx="647" cy="72.5" r="2" stroke="#C6A664" stroke-width="2" fill="#C6A664"/>

<!-- Link from &quot;personne&quot; (RELATION) to &quot;personne&quot; (PERSONNE) -->
<path d="M269 199.5 C301 174 290.33 148.5 333 148.5" fill="none" stroke="#C6A664" stroke-width="2"/>
<polygon points="333 148.5 321 154.5 325 148.5 321 142.5" fill="#C6A664" stroke-width="0"/>
<circle cx="269" cy="199.5" r="2" stroke="#C6A664" stroke-width="2" fill="#C6A664"/>

<!-- Link from &quot;personne&quot; (RELATION) to &quot;personne&quot; (PERSONNE) -->
<path d="M269 216.5 C301 182.5 290.33 148.5 333 148.5" fill="none" stroke="#C6A664" stroke-width="2"/>
<polygon points="333 148.5 321 154.5 325 148.5 321 142.5" fill="#C6A664" stroke-width="0"/>
<circle cx="269" cy="216.5" r="2" stroke="#C6A664" stroke-width="2" fill="#C6A664"/>

<!-- Link from &quot;id travail&quot; (PERSONNE) to &quot;id travail&quot; (TRAVAIL) -->
<path d="M333 284.5 C299 301 310.33 317.5 265 317.5" fill="none" stroke="#C6A664" stroke-width="2"/>
<polygon points="265 317.5 277 311.5 273 317.5 277 323.5" fill="#C6A664" stroke-width="0"/>
<circle cx="333" cy="284.5" r="2" stroke="#C6A664" stroke-width="2" fill="#C6A664"/>

<!-- Link from &quot;personne&quot; (CONSULTATION) to &quot;personne&quot; (PERSONNE) -->
<path d="M490 224.5 C454.5 186.5 466.33 148.5 419 148.5" fill="none" stroke="#C6A664" stroke-width="2"/>
<polygon points="419 148.5 431 142.5 427 148.5 431 154.5" fill="#C6A664" stroke-width="0"/>
<circle cx="490" cy="224.5" r="2" stroke="#C6A664" stroke-width="2" fill="#C6A664"/>

<!-- Link from &quot;personne&quot; (CONSULTATION) to &quot;personne&quot; (PERSONNE) -->
<path d="M490 241.5 C454.5 195 466.33 148.5 419 148.5" fill="none" stroke="#C6A664" stroke-width="2"/>
<polygon points="419 148.5 431 142.5 427 148.5 431 154.5" fill="#C6A664" stroke-width="0"/>
<circle cx="490" cy="241.5" r="2" stroke="#C6A664" stroke-width="2" fill="#C6A664"/>

<!-- Link from &quot;consultation&quot; (PRESCRIPTION) to &quot;consultation&quot; (CONSULTATION) -->
<path d="M647 199.5 C610.5 195 622.67 190.5 574 190.5" fill="none" stroke="#C6A664" stroke-width="2"/>
<polygon points="574 190.5 586 184.5 582 190.5 586 196.5" fill="#C6A664" stroke-width="0"/>
<circle cx="647" cy="199.5" r="2" stroke="#C6A664" stroke-width="2" fill="#C6A664"/>

<!-- Link from &quot;spécialité&quot; (PRESCRIPTION) to &quot;spécialité&quot; (SPECIALITE) -->
<path d="M741 216.5 C776.5 212 764.67 207.5 812 207.5" fill="none" stroke="#C6A664" stroke-width="2"/>
<polygon points="812 207.5 800 213.5 804 207.5 800 201.5" fill="#C6A664" stroke-width="0"/>
<circle cx="741" cy="216.5" r="2" stroke="#C6A664" stroke-width="2" fill="#C6A664"/>

<!-- Link from &quot;site&quot; (TRAVAIL) to &quot;site&quot; (SITE) -->
<path d="M185 351.5 C146.5 334.5 159.33 317.5 108 317.5" fill="none" stroke="#C6A664" stroke-width="2"/>
<polygon points="108 317.5 120 311.5 116 317.5 120 323.5" fill="#C6A664" stroke-width="0"/>
<circle cx="185" cy="351.5" r="2" stroke="#C6A664" stroke-width="2" fill="#C6A664"/>

<!-- Link from &quot;personne&quot; (LETTRE) to &quot;personne&quot; (PERSONNE) -->
<path d="M486 351.5 C452.5 250 463.67 148.5 419 148.5" fill="none" stroke="#C6A664" stroke-width="2"/>
<polygon points="419 148.5 431 142.5 427 148.5 431 154.5" fill="#C6A664" stroke-width="0"/>
<circle cx="486" cy="351.5" r="2" stroke="#C6A664" stroke-width="2" fill="#C6A664"/>

<!-- Link from &quot;consultation&quot; (HOSPITALISATION) to &quot;consultation&quot; (CONSULTATION) -->
<path d="M645 308.5 C609.5 249.5 621.33 190.5 574 190.5" fill="none" stroke="#C6A664" stroke-width="2"/>
<polygon points="574 190.5 586 184.5 582 190.5 586 196.5" fill="#C6A664" stroke-width="0"/>
<circle cx="645" cy="308.5" r="2" stroke="#C6A664" stroke-width="2" fill="#C6A664"/>

<!-- Link from &quot;spécialité&quot; (INDICATION) to &quot;spécialité&quot; (SPECIALITE) -->
<path d="M885 325.5 C939 266.5 934 207.5 880 207.5" fill="none" stroke="#C6A664" stroke-width="2"/>
<polygon points="880 207.5 892 201.5 888 207.5 892 213.5" fill="#C6A664" stroke-width="0"/>
<circle cx="885" cy="325.5" r="2" stroke="#C6A664" stroke-width="2" fill="#C6A664"/>
</svg>