<?xml version="1.0" encoding="utf-8"?>
<!-- Generated by Mocodo 4.3.2 -->
<svg width="565" height="575" viewBox="0 0 565 575" xmlns="http://www.w3.org/2000/svg">
<rect x="0" y="0" width="565" height="575" fill="#FFFFFF" stroke="none" stroke-width="0"/>

<!-- Association DF0 -->
<g class="page_0_62ae8049 diagram_page" visibility="visible">
	<line x1="516" y1="135" x2="516" y2="51" stroke="#000000" stroke-width="2"/>
	<line x1="407" y1="51" x2="516" y2="51" stroke="#000000" stroke-width="2"/>
	<g>
		<circle cx="516" cy="51" r="16" stroke="#000000" stroke-width="2" fill="#FFFFFF"/>
		<text x="507" y="55" fill="#000000" font-family="Verdana" font-size="12">DF</text>
	</g>
	<text x="521" y="93" fill="#000000" font-family="Verdana" font-size="12">1,1</text>
	<text x="441" y="68" fill="#000000" font-family="Verdana" font-size="12">0,N</text>
</g>

<!-- Association RECEVOIR -->
<g class="page_0_62ae8049 diagram_page" visibility="visible">
	<line x1="58" y1="51" x2="58" y2="135" stroke="#000000" stroke-width="2"/>
	<path d="M188 270 C181.76 205.29 138.43 160.29 58 135" fill="none" stroke="#000000" stroke-width="2"/>
	<g>
		<path d="M76 110 a14 14 90 0 1 14 14 V135 h-64 V124 a14 14 90 0 1 14 -14" fill="#FFFFFF" stroke="#FFFFFF" stroke-width="0"/>
		<path d="M90 135 v11 a14 14 90 0 1 -14 14 H40 a14 14 90 0 1 -14 -14 V135 H64" fill="#FFFFFF" stroke="#FFFFFF" stroke-width="0"/>
		<rect x="26" y="110" width="64" height="50" fill="none" rx="14" stroke="#000000" stroke-width="2"/>
		<line x1="26" y1="135" x2="90" y2="135" stroke="#000000" stroke-width="1"/>
		<text x="34" y="127.75" fill="#000000" font-family="Verdana" font-size="12">recevoir</text>
	</g>
	<text x="63" y="102" fill="#000000" font-family="Verdana" font-size="12">0,1</text>
	<text x="118" y="192.12" fill="#000000" font-family="Verdana" font-size="12" onmouseover="show_62ae8049(evt,'destinataire')" onmouseout="hide_62ae8049(evt)" style="cursor: pointer;">0,N</text>
</g>

<!-- Association RELATION -->
<g class="page_0_62ae8049 diagram_page" visibility="visible">
	<path d="M188 270 C145.33 185 145.33 140 188 135" fill="none" stroke="#000000" stroke-width="2"/>
	<path d="M188 270 C230.67 185 230.67 140 188 135" fill="none" stroke="#000000" stroke-width="2"/>
	<g>
		<path d="M205 110 a14 14 90 0 1 14 14 V135 h-62 V124 a14 14 90 0 1 14 -14" fill="#FFFFFF" stroke="#FFFFFF" stroke-width="0"/>
		<path d="M219 135 v11 a14 14 90 0 1 -14 14 H171 a14 14 90 0 1 -14 -14 V135 H62" fill="#FFFFFF" stroke="#FFFFFF" stroke-width="0"/>
		<rect x="157" y="110" width="62" height="50" fill="none" rx="14" stroke="#000000" stroke-width="2"/>
		<line x1="157" y1="135" x2="219" y2="135" stroke="#000000" stroke-width="1"/>
		<text x="165" y="127.75" fill="#000000" font-family="Verdana" font-size="12">relation</text>
		<text x="164" y="152.8" fill="#000000" font-family="Verdana" font-size="12">nature</text>
	</g>
	<text x="162" y="177" fill="#000000" font-family="Verdana" font-size="12">0,N</text>
	<text x="192" y="177" fill="#000000" font-family="Verdana" font-size="12">0,N</text>
</g>

<!-- Association ASSISTANCE -->
<g class="page_0_62ae8049 diagram_page" visibility="visible">
	<line x1="290" y1="51" x2="290" y2="135" stroke="#000000" stroke-width="2"/>
	<line x1="188" y1="270" x2="290" y2="135" stroke="#000000" stroke-width="2"/>
	<g>
		<path d="M315 110 a14 14 90 0 1 14 14 V135 h-78 V124 a14 14 90 0 1 14 -14" fill="#FFFFFF" stroke="#FFFFFF" stroke-width="0"/>
		<path d="M329 135 v11 a14 14 90 0 1 -14 14 H265 a14 14 90 0 1 -14 -14 V135 H78" fill="#FFFFFF" stroke="#FFFFFF" stroke-width="0"/>
		<rect x="251" y="110" width="78" height="50" fill="none" rx="14" stroke="#000000" stroke-width="2"/>
		<line x1="251" y1="135" x2="329" y2="135" stroke="#000000" stroke-width="1"/>
		<text x="259" y="127.75" fill="#000000" font-family="Verdana" font-size="12">assistance</text>
	</g>
	<text x="295" y="93" fill="#000000" font-family="Verdana" font-size="12">0,N</text>
	<text x="236" y="224.4" fill="#000000" font-family="Verdana" font-size="12">0,N</text>
</g>

<!-- Association DF1 -->
<g class="page_0_62ae8049 diagram_page" visibility="visible">
	<line x1="188" y1="270" x2="407" y2="135" stroke="#000000" stroke-width="2"/>
	<line x1="516" y1="135" x2="407" y2="135" stroke="#000000" stroke-width="2"/>
	<g>
		<circle cx="407" cy="135" r="16" stroke="#000000" stroke-width="2" fill="#FFFFFF"/>
		<text x="398" y="139" fill="#000000" font-family="Verdana" font-size="12">DF</text>
	</g>
	<text x="236" y="255.73" fill="#000000" font-family="Verdana" font-size="12">0,1</text>
	<text x="449" y="152" fill="#000000" font-family="Verdana" font-size="12">0,N</text>
</g>

<!-- Association AMANTS -->
<g class="page_0_62ae8049 diagram_page" visibility="visible">
	<path d="M188 270 C152.67 303.33 109.33 303.33 58 270" fill="none" stroke="#000000" stroke-width="2"/>
	<path d="M188 270 C152.67 236.67 109.33 236.67 58 270" fill="none" stroke="#000000" stroke-width="2"/>
	<g>
		<path d="M74 245 a14 14 90 0 1 14 14 V270 h-60 V259 a14 14 90 0 1 14 -14" fill="#FFFFFF" stroke="#FFFFFF" stroke-width="0"/>
		<path d="M88 270 v11 a14 14 90 0 1 -14 14 H42 a14 14 90 0 1 -14 -14 V270 H60" fill="#FFFFFF" stroke="#FFFFFF" stroke-width="0"/>
		<rect x="28" y="245" width="60" height="50" fill="none" rx="14" stroke="#000000" stroke-width="2"/>
		<line x1="28" y1="270" x2="88" y2="270" stroke="#000000" stroke-width="1"/>
		<text x="35" y="262.75" fill="#000000" font-family="Verdana" font-size="12">amants</text>
	</g>
	<text x="118" y="285" fill="#000000" font-family="Verdana" font-size="12">0,N</text>
	<text x="118" y="264" fill="#000000" font-family="Verdana" font-size="12">0,N</text>
</g>

<!-- Association DF2 -->
<g class="page_0_62ae8049 diagram_page" visibility="visible">
	<line x1="290" y1="414" x2="290" y2="270" stroke="#000000" stroke-width="2"/>
	<line x1="188" y1="270" x2="290" y2="270" stroke="#000000" stroke-width="2"/>
	<g>
		<circle cx="290" cy="270" r="16" stroke="#000000" stroke-width="2" fill="#FFFFFF"/>
		<text x="281" y="274" fill="#000000" font-family="Verdana" font-size="12">DF</text>
	</g>
	<text x="295" y="372" fill="#000000" font-family="Verdana" font-size="12">1,1</text>
	<text x="236" y="287" fill="#000000" font-family="Verdana" font-size="12" onmouseover="show_62ae8049(evt,'docteur')" onmouseout="hide_62ae8049(evt)" style="cursor: pointer;">0,N</text>
</g>

<!-- Association DF3 -->
<g class="page_0_62ae8049 diagram_page" visibility="visible">
	<line x1="407" y1="270" x2="516" y2="270" stroke="#000000" stroke-width="2"/>
	<line x1="516" y1="414" x2="516" y2="270" stroke="#000000" stroke-width="2"/>
	<g>
		<circle cx="516" cy="270" r="16" stroke="#000000" stroke-width="2" fill="#FFFFFF"/>
		<text x="507" y="274" fill="#000000" font-family="Verdana" font-size="12">DF</text>
	</g>
	<text x="447" y="287" fill="#000000" font-family="Verdana" font-size="12">1,1</text>
	<line x1="447" y1="289" x2="468" y2="289" stroke="#000000" stroke-width="1"/>
	<text x="521" y="372" fill="#000000" font-family="Verdana" font-size="12">0,N</text>
</g>

<!-- Association DF4 -->
<g class="page_0_62ae8049 diagram_page" visibility="visible">
	<line x1="58" y1="515" x2="58" y2="414" stroke="#000000" stroke-width="2"/>
	<path d="M188 270 C182.73 336.28 139.4 384.28 58 414" fill="none" stroke="#000000" stroke-width="2"/>
	<g>
		<circle cx="58" cy="414" r="16" stroke="#000000" stroke-width="2" fill="#FFFFFF"/>
		<text x="49" y="418" fill="#000000" font-family="Verdana" font-size="12">DF</text>
	</g>
	<text x="63" y="456" fill="#000000" font-family="Verdana" font-size="12">1,1</text>
	<text x="118" y="361.56" fill="#000000" font-family="Verdana" font-size="12">0,N</text>
</g>

<!-- Association DF5 -->
<g class="page_0_62ae8049 diagram_page" visibility="visible">
	<line x1="290" y1="414" x2="188" y2="414" stroke="#000000" stroke-width="2"/>
	<line x1="188" y1="270" x2="188" y2="414" stroke="#000000" stroke-width="2"/>
	<g>
		<circle cx="188" cy="414" r="16" stroke="#000000" stroke-width="2" fill="#FFFFFF"/>
		<text x="179" y="418" fill="#000000" font-family="Verdana" font-size="12">DF</text>
	</g>
	<text x="222" y="431" fill="#000000" font-family="Verdana" font-size="12">1,1</text>
	<text x="193" y="372" fill="#000000" font-family="Verdana" font-size="12" onmouseover="show_62ae8049(evt,'patient')" onmouseout="hide_62ae8049(evt)" style="cursor: pointer;">0,N</text>
</g>

<!-- Association PRESCRIPTION -->
<g class="page_0_62ae8049 diagram_page" visibility="visible">
	<line x1="290" y1="414" x2="407" y2="414" stroke="#000000" stroke-width="2"/>
	<line x1="516" y1="414" x2="407" y2="414" stroke="#000000" stroke-width="2"/>
	<g>
		<path d="M436 389 a14 14 90 0 1 14 14 V414 h-86 V403 a14 14 90 0 1 14 -14" fill="#FFFFFF" stroke="#FFFFFF" stroke-width="0"/>
		<path d="M450 414 v11 a14 14 90 0 1 -14 14 H378 a14 14 90 0 1 -14 -14 V414 H86" fill="#FFFFFF" stroke="#FFFFFF" stroke-width="0"/>
		<rect x="364" y="389" width="86" height="50" fill="none" rx="14" stroke="#000000" stroke-width="2"/>
		<line x1="364" y1="414" x2="450" y2="414" stroke="#000000" stroke-width="1"/>
		<text x="371" y="406.75" fill="#000000" font-family="Verdana" font-size="12">prescription</text>
		<text x="371" y="431.8" fill="#000000" font-family="Verdana" font-size="12">durée</text>
	</g>
	<text x="337" y="406" fill="#000000" font-family="Verdana" font-size="12">1,N</text>
	<text x="455" y="431" fill="#000000" font-family="Verdana" font-size="12">1,N</text>
</g>

<!-- Association DF6 -->
<g class="page_0_62ae8049 diagram_page" visibility="visible">
	<line x1="188" y1="515" x2="290" y2="515" stroke="#000000" stroke-width="2"/>
	<line x1="290" y1="414" x2="290" y2="515" stroke="#000000" stroke-width="2"/>
	<g>
		<circle cx="290" cy="515" r="16" stroke="#000000" stroke-width="2" fill="#FFFFFF"/>
		<text x="281" y="519" fill="#000000" font-family="Verdana" font-size="12">DF</text>
	</g>
	<text x="242" y="532" fill="#000000" font-family="Verdana" font-size="12">1,1</text>
	<line x1="242" y1="534" x2="263" y2="534" stroke="#000000" stroke-width="1"/>
	<text x="264" y="465" fill="#000000" font-family="Verdana" font-size="12">0,1</text>
</g>

<!-- Association DF7 -->
<g class="page_0_62ae8049 diagram_page" visibility="visible">
	<line x1="516" y1="515" x2="407" y2="515" stroke="#000000" stroke-width="2"/>
	<line x1="290" y1="414" x2="407" y2="515" stroke="#000000" stroke-width="2"/>
	<g>
		<circle cx="407" cy="515" r="16" stroke="#000000" stroke-width="2" fill="#FFFFFF"/>
		<text x="398" y="519" fill="#000000" font-family="Verdana" font-size="12">DF</text>
	</g>
	<text x="454" y="532" fill="#000000" font-family="Verdana" font-size="12">1,1</text>
	<line x1="454" y1="534" x2="475" y2="534" stroke="#000000" stroke-width="1"/>
	<text x="309.73" y="465" fill="#000000" font-family="Verdana" font-size="12">1,1</text>
</g>

<!-- Entity LETTRE -->
<g class="page_0_62ae8049 diagram_page" visibility="visible">
	<g>
		<rect x="36" y="17" width="44" height="25" fill="#FFFFFF" stroke="none" stroke-width="0" opacity="1"/>
		<rect x="36" y="42" width="44" height="43" fill="#FFFFFF" stroke="none" stroke-width="0" opacity="1"/>
		<rect x="36" y="17" width="44" height="68" fill="none" stroke="#000000" stroke-width="2" opacity="1"/>
		<line x1="36" y1="42" x2="80" y2="42" stroke="#000000" stroke-width="1"/>
	</g>
	<text x="42" y="34.75" fill="#000000" font-family="Verdana" font-size="12">lettre</text>
	<text x="41" y="59.8" fill="#000000" font-family="Verdana" font-size="12">lettre</text>
	<line x1="41" y1="62" x2="74" y2="62" stroke="#000000" stroke-width="1"/>
	<text x="41" y="76.8" fill="#000000" font-family="Verdana" font-size="12">date</text>
</g>

<!-- Entity FRAGMENT -->
<g class="page_0_62ae8049 diagram_page" visibility="visible">
	<g>
		<rect x="155" y="17" width="66" height="25" fill="#FFFFFF" stroke="none" stroke-width="0" opacity="1"/>
		<rect x="155" y="42" width="66" height="43" fill="#FFFFFF" stroke="none" stroke-width="0" opacity="1"/>
		<rect x="155" y="17" width="66" height="68" fill="none" stroke="#000000" stroke-width="2" opacity="1"/>
		<line x1="155" y1="42" x2="221" y2="42" stroke="#000000" stroke-width="1"/>
	</g>
	<text x="160" y="34.75" fill="#000000" font-family="Verdana" font-size="12">fragment</text>
	<text x="160" y="59.8" fill="#000000" font-family="Verdana" font-size="12">fragment</text>
	<line x1="160" y1="62" x2="216" y2="62" stroke="#000000" stroke-width="1"/>
	<text x="160" y="76.8" fill="#000000" font-family="Verdana" font-size="12">texte</text>
</g>

<!-- Entity DATE -->
<g class="page_0_62ae8049 diagram_page" visibility="visible">
	<g>
		<rect x="271" y="26" width="38" height="25" fill="#FFFFFF" stroke="none" stroke-width="0" opacity="1"/>
		<rect x="271" y="51" width="38" height="25" fill="#FFFFFF" stroke="none" stroke-width="0" opacity="1"/>
		<rect x="271" y="26" width="38" height="50" fill="none" stroke="#000000" stroke-width="2" opacity="1"/>
		<line x1="271" y1="51" x2="309" y2="51" stroke="#000000" stroke-width="1"/>
	</g>
	<text x="276" y="43.75" fill="#000000" font-family="Verdana" font-size="12">date</text>
	<text x="276" y="68.8" fill="#000000" font-family="Verdana" font-size="12">date</text>
	<line x1="276" y1="71" x2="304" y2="71" stroke="#000000" stroke-width="1"/>
</g>

<!-- Entity SITE -->
<g class="page_0_62ae8049 diagram_page" visibility="visible">
	<g>
		<rect x="378" y="9" width="58" height="25" fill="#FFFFFF" stroke="none" stroke-width="0" opacity="1"/>
		<rect x="378" y="34" width="58" height="59" fill="#FFFFFF" stroke="none" stroke-width="0" opacity="1"/>
		<rect x="378" y="9" width="58" height="84" fill="none" stroke="#000000" stroke-width="2" opacity="1"/>
		<line x1="378" y1="34" x2="436" y2="34" stroke="#000000" stroke-width="1"/>
	</g>
	<text x="396" y="26.75" fill="#000000" font-family="Verdana" font-size="12">site</text>
	<text x="383" y="51.8" fill="#000000" font-family="Verdana" font-size="12">site</text>
	<line x1="383" y1="54" x2="405" y2="54" stroke="#000000" stroke-width="1"/>
	<text x="383" y="68.8" fill="#000000" font-family="Verdana" font-size="12">numéro</text>
	<text x="383" y="85.8" fill="#000000" font-family="Verdana" font-size="12">voie</text>
</g>

<!-- Entity TRAVAIL -->
<g class="page_0_62ae8049 diagram_page" visibility="visible">
	<g>
		<rect x="476" y="101" width="80" height="25" fill="#FFFFFF" stroke="none" stroke-width="0" opacity="1"/>
		<rect x="476" y="126" width="80" height="43" fill="#FFFFFF" stroke="none" stroke-width="0" opacity="1"/>
		<rect x="476" y="101" width="80" height="68" fill="none" stroke="#000000" stroke-width="2" opacity="1"/>
		<line x1="476" y1="126" x2="556" y2="126" stroke="#000000" stroke-width="1"/>
	</g>
	<text x="497" y="118.75" fill="#000000" font-family="Verdana" font-size="12">travail</text>
	<text x="481" y="143.8" fill="#000000" font-family="Verdana" font-size="12">id travail</text>
	<line x1="481" y1="146" x2="535" y2="146" stroke="#000000" stroke-width="1"/>
	<text x="481" y="160.8" fill="#000000" font-family="Verdana" font-size="12">nom travail</text>
</g>

<!-- Entity PERSONNE -->
<g class="page_0_62ae8049 diagram_page" visibility="visible">
	<g>
		<rect x="145" y="185" width="86" height="25" fill="#FFFFFF" stroke="none" stroke-width="0" opacity="1"/>
		<rect x="145" y="210" width="86" height="145" fill="#FFFFFF" stroke="none" stroke-width="0" opacity="1"/>
		<rect x="145" y="185" width="86" height="170" fill="none" stroke="#000000" stroke-width="2" opacity="1"/>
		<line x1="145" y1="210" x2="231" y2="210" stroke="#000000" stroke-width="1"/>
	</g>
	<text x="160" y="202.75" fill="#000000" font-family="Verdana" font-size="12">personne</text>
	<text x="150" y="227.8" fill="#000000" font-family="Verdana" font-size="12">personne</text>
	<line x1="150" y1="230" x2="207" y2="230" stroke="#000000" stroke-width="1"/>
	<text x="150" y="244.8" fill="#000000" font-family="Verdana" font-size="12">sexe</text>
	<text x="150" y="261.8" fill="#000000" font-family="Verdana" font-size="12">âge</text>
	<text x="150" y="278.8" fill="#000000" font-family="Verdana" font-size="12">complément</text>
	<text x="150" y="295.8" fill="#000000" font-family="Verdana" font-size="12">numéro</text>
	<text x="150" y="312.8" fill="#000000" font-family="Verdana" font-size="12">voie</text>
	<text x="150" y="329.8" fill="#000000" font-family="Verdana" font-size="12">pratiquant</text>
	<text x="150" y="346.8" fill="#000000" font-family="Verdana" font-size="12">date décès</text>
</g>

<!-- Entity INDICATION -->
<g class="page_0_62ae8049 diagram_page" visibility="visible">
	<g>
		<rect x="372" y="245" width="70" height="25" fill="#FFFFFF" stroke="none" stroke-width="0" opacity="1"/>
		<rect x="372" y="270" width="70" height="25" fill="#FFFFFF" stroke="none" stroke-width="0" opacity="1"/>
		<rect x="372" y="245" width="70" height="50" fill="none" stroke="#000000" stroke-width="2" opacity="1"/>
		<line x1="372" y1="270" x2="442" y2="270" stroke="#000000" stroke-width="1"/>
	</g>
	<text x="378" y="262.75" fill="#000000" font-family="Verdana" font-size="12">indication</text>
	<text x="377" y="287.8" fill="#000000" font-family="Verdana" font-size="12">trouble</text>
	<line x1="377" y1="290" x2="421" y2="290" stroke="#000000" stroke-width="1" stroke-dasharray="4"/>
</g>

<!-- Entity CONSULTATION -->
<g class="page_0_62ae8049 diagram_page" visibility="visible">
	<g>
		<rect x="248" y="380" width="84" height="25" fill="#FFFFFF" stroke="none" stroke-width="0" opacity="1"/>
		<rect x="248" y="405" width="84" height="43" fill="#FFFFFF" stroke="none" stroke-width="0" opacity="1"/>
		<rect x="248" y="380" width="84" height="68" fill="none" stroke="#000000" stroke-width="2" opacity="1"/>
		<line x1="248" y1="405" x2="332" y2="405" stroke="#000000" stroke-width="1"/>
	</g>
	<text x="253" y="397.75" fill="#000000" font-family="Verdana" font-size="12">consultation</text>
	<text x="253" y="422.8" fill="#000000" font-family="Verdana" font-size="12">consultation</text>
	<line x1="253" y1="425" x2="327" y2="425" stroke="#000000" stroke-width="1"/>
	<text x="253" y="439.8" fill="#000000" font-family="Verdana" font-size="12">date</text>
</g>

<!-- Entity SPECIALITE -->
<g class="page_0_62ae8049 diagram_page" visibility="visible">
	<g>
		<rect x="482" y="380" width="68" height="25" fill="#FFFFFF" stroke="none" stroke-width="0" opacity="1"/>
		<rect x="482" y="405" width="68" height="43" fill="#FFFFFF" stroke="none" stroke-width="0" opacity="1"/>
		<rect x="482" y="380" width="68" height="68" fill="none" stroke="#000000" stroke-width="2" opacity="1"/>
		<line x1="482" y1="405" x2="550" y2="405" stroke="#000000" stroke-width="1"/>
	</g>
	<text x="488" y="397.75" fill="#000000" font-family="Verdana" font-size="12">spécialité</text>
	<text x="487" y="422.8" fill="#000000" font-family="Verdana" font-size="12">spécialité</text>
	<line x1="487" y1="425" x2="544" y2="425" stroke="#000000" stroke-width="1"/>
	<text x="487" y="439.8" fill="#000000" font-family="Verdana" font-size="12">stock</text>
</g>

<!-- Entity EMPRUNT -->
<g class="page_0_62ae8049 diagram_page" visibility="visible">
	<g>
		<rect x="9" y="464" width="98" height="25" fill="#FFFFFF" stroke="none" stroke-width="0" opacity="1"/>
		<rect x="9" y="489" width="98" height="77" fill="#FFFFFF" stroke="none" stroke-width="0" opacity="1"/>
		<rect x="9" y="464" width="98" height="102" fill="none" stroke="#000000" stroke-width="2" opacity="1"/>
		<line x1="9" y1="489" x2="107" y2="489" stroke="#000000" stroke-width="1"/>
	</g>
	<text x="32" y="481.75" fill="#000000" font-family="Verdana" font-size="12">emprunt</text>
	<text x="14" y="506.8" fill="#000000" font-family="Verdana" font-size="12">emprunt</text>
	<line x1="14" y1="509" x2="66" y2="509" stroke="#000000" stroke-width="1"/>
	<text x="14" y="523.8" fill="#000000" font-family="Verdana" font-size="12">montant</text>
	<text x="14" y="540.8" fill="#000000" font-family="Verdana" font-size="12">date_emprunt</text>
	<text x="14" y="557.8" fill="#000000" font-family="Verdana" font-size="12">date_rendu</text>
</g>

<!-- Entity HOSPITALISATION -->
<g class="page_0_62ae8049 diagram_page" visibility="visible">
	<g>
		<rect x="139" y="473" width="98" height="25" fill="#FFFFFF" stroke="none" stroke-width="0" opacity="1"/>
		<rect x="139" y="498" width="98" height="59" fill="#FFFFFF" stroke="none" stroke-width="0" opacity="1"/>
		<rect x="139" y="473" width="98" height="84" fill="none" stroke="#000000" stroke-width="2" opacity="1"/>
		<line x1="139" y1="498" x2="237" y2="498" stroke="#000000" stroke-width="1"/>
	</g>
	<text x="144" y="490.75" fill="#000000" font-family="Verdana" font-size="12">hospitalisation</text>
	<text x="144" y="515.8" fill="#000000" font-family="Verdana" font-size="12">entrée</text>
	<text x="144" y="532.8" fill="#000000" font-family="Verdana" font-size="12">sortie</text>
	<text x="144" y="549.8" fill="#000000" font-family="Verdana" font-size="12">lit</text>
</g>

<!-- Entity DIAGNOSTIC -->
<g class="page_0_62ae8049 diagram_page" visibility="visible">
	<g>
		<rect x="480" y="490" width="72" height="25" fill="#FFFFFF" stroke="none" stroke-width="0" opacity="1"/>
		<rect x="480" y="515" width="72" height="25" fill="#FFFFFF" stroke="none" stroke-width="0" opacity="1"/>
		<rect x="480" y="490" width="72" height="50" fill="none" stroke="#000000" stroke-width="2" opacity="1"/>
		<line x1="480" y1="515" x2="552" y2="515" stroke="#000000" stroke-width="1"/>
	</g>
	<text x="485" y="507.75" fill="#000000" font-family="Verdana" font-size="12">diagnostic</text>
	<text x="485" y="532.8" fill="#000000" font-family="Verdana" font-size="12">trouble</text>
	<line x1="485" y1="535" x2="529" y2="535" stroke="#000000" stroke-width="1" stroke-dasharray="4"/>
</g>

<!-- Notes -->
<script type="text/ecmascript">
<![CDATA[
	function show_62ae8049(evt, text) {
		var pos = (evt.target.getAttribute("y") < 530) ? "bottom" : "top";
		var note = document.getElementById(pos + "_note_62ae8049");
		note.textContent = text;
		note.setAttributeNS(null, "visibility", "visible");
		document.getElementById(pos + "_overlay_62ae8049").setAttributeNS(null, "visibility", "visible");
	}
	function hide_62ae8049(evt) {
		document.getElementById("top_note_62ae8049").setAttributeNS(null, "visibility", "hidden");
		document.getElementById("top_overlay_62ae8049").setAttributeNS(null, "visibility", "hidden");
		document.getElementById("bottom_note_62ae8049").setAttributeNS(null, "visibility", "hidden");
		document.getElementById("bottom_overlay_62ae8049").setAttributeNS(null, "visibility", "hidden");
	}
]]>
</script>
<rect id="top_overlay_62ae8049" x="0" y="0" width="100%" height="40" fill="#000000" stroke-width="0" opacity="0.7" visibility="hidden"/>
<text id="top_note_62ae8049" text-anchor="middle" x="282" y="24" fill="#FFFFFF" font-family="Verdana" font-size="14" visibility="hidden"></text>
<rect id="bottom_overlay_62ae8049" x="0" y="535" width="100%" height="40" fill="#000000" stroke-width="0" opacity="0.7" visibility="hidden"/>
<text id="bottom_note_62ae8049" text-anchor="middle" x="282" y="559" fill="#FFFFFF" font-family="Verdana" font-size="14" visibility="hidden"></text>
</svg>